<mxfile host="app.diagrams.net" agent="Mozilla/5.0 (Windows NT 10.0; Win64; x64) AppleWebKit/537.36 (KHTML, like Gecko) Chrome/136.0.0.0 Safari/537.36 Edg/136.0.0.0" version="26.2.14">
  <diagram name="Page-1" id="JdvfufJauCnh50oI_fW5">
    <mxGraphModel dx="1418" dy="752" grid="1" gridSize="10" guides="1" tooltips="1" connect="1" arrows="1" fold="1" page="1" pageScale="1" pageWidth="850" pageHeight="1100" math="0" shadow="0">
      <root>
        <mxCell id="0" />
        <mxCell id="1" parent="0" />
        <mxCell id="48KPZ2gcjMkBe6VK5TsO-8" value="MDM Hub&lt;div&gt;Golden Records store&lt;/div&gt;" style="shape=datastore;whiteSpace=wrap;html=1;strokeWidth=2;fillColor=#fff2cc;strokeColor=#d6b656;" parent="1" vertex="1">
          <mxGeometry x="340" y="200" width="80" height="90" as="geometry" />
        </mxCell>
        <mxCell id="48KPZ2gcjMkBe6VK5TsO-9" value="" style="image;aspect=fixed;html=1;points=[];align=center;fontSize=12;image=img/lib/azure2/databases/SQL_Data_Warehouses.svg;" parent="1" vertex="1">
          <mxGeometry x="530" y="210" width="68.92" height="70" as="geometry" />
        </mxCell>
        <mxCell id="48KPZ2gcjMkBe6VK5TsO-10" value="" style="verticalLabelPosition=bottom;sketch=0;aspect=fixed;html=1;verticalAlign=top;strokeColor=none;align=center;outlineConnect=0;shape=mxgraph.citrix.reporting;" parent="1" vertex="1">
          <mxGeometry x="720.75" y="261" width="43.67" height="49" as="geometry" />
        </mxCell>
        <mxCell id="48KPZ2gcjMkBe6VK5TsO-11" value="Inventory Mng." style="strokeWidth=2;html=1;shape=mxgraph.flowchart.database;whiteSpace=wrap;fillColor=#dae8fc;strokeColor=#6c8ebf;" parent="1" vertex="1">
          <mxGeometry x="100" y="145" width="110" height="40" as="geometry" />
        </mxCell>
        <mxCell id="48KPZ2gcjMkBe6VK5TsO-12" value="Reporting" style="text;html=1;align=center;verticalAlign=middle;whiteSpace=wrap;rounded=0;" parent="1" vertex="1">
          <mxGeometry x="692.98" y="310" width="95.54" height="30" as="geometry" />
        </mxCell>
        <mxCell id="48KPZ2gcjMkBe6VK5TsO-13" value="Enterprise Data Warehouse" style="text;html=1;align=center;verticalAlign=middle;whiteSpace=wrap;rounded=0;" parent="1" vertex="1">
          <mxGeometry x="516.69" y="290" width="95.54" height="30" as="geometry" />
        </mxCell>
        <mxCell id="48KPZ2gcjMkBe6VK5TsO-15" value="" style="sketch=0;outlineConnect=0;fontColor=#232F3E;gradientColor=none;fillColor=#232F3D;strokeColor=none;dashed=0;verticalLabelPosition=bottom;verticalAlign=top;align=center;html=1;fontSize=12;fontStyle=0;aspect=fixed;pointerEvents=1;shape=mxgraph.aws4.user;" parent="1" vertex="1">
          <mxGeometry x="720.75" y="150" width="40" height="40" as="geometry" />
        </mxCell>
        <mxCell id="48KPZ2gcjMkBe6VK5TsO-16" value="Internal Users" style="text;html=1;align=center;verticalAlign=middle;whiteSpace=wrap;rounded=0;" parent="1" vertex="1">
          <mxGeometry x="692.98" y="190" width="95.54" height="30" as="geometry" />
        </mxCell>
        <mxCell id="48KPZ2gcjMkBe6VK5TsO-17" value="User&amp;nbsp;&lt;span style=&quot;background-color: transparent; color: light-dark(rgb(0, 0, 0), rgb(255, 255, 255));&quot;&gt;Service&lt;/span&gt;" style="strokeWidth=2;html=1;shape=mxgraph.flowchart.database;whiteSpace=wrap;fillColor=#d5e8d4;strokeColor=#82b366;" parent="1" vertex="1">
          <mxGeometry x="100" y="65" width="110" height="40" as="geometry" />
        </mxCell>
        <mxCell id="48KPZ2gcjMkBe6VK5TsO-18" value="Listing" style="strokeWidth=2;html=1;shape=mxgraph.flowchart.database;whiteSpace=wrap;fillColor=#f8cecc;strokeColor=#b85450;" parent="1" vertex="1">
          <mxGeometry x="100" y="225" width="110" height="40" as="geometry" />
        </mxCell>
        <mxCell id="48KPZ2gcjMkBe6VK5TsO-19" value="Order Processing" style="strokeWidth=2;html=1;shape=mxgraph.flowchart.database;whiteSpace=wrap;fillColor=#f5f5f5;fontColor=#333333;strokeColor=#666666;" parent="1" vertex="1">
          <mxGeometry x="100" y="305" width="110" height="40" as="geometry" />
        </mxCell>
        <mxCell id="48KPZ2gcjMkBe6VK5TsO-20" value="Customer Service" style="strokeWidth=2;html=1;shape=mxgraph.flowchart.database;whiteSpace=wrap;fillColor=#e1d5e7;strokeColor=#9673a6;" parent="1" vertex="1">
          <mxGeometry x="100" y="385" width="110" height="40" as="geometry" />
        </mxCell>
        <mxCell id="48KPZ2gcjMkBe6VK5TsO-21" value="" style="edgeStyle=elbowEdgeStyle;elbow=horizontal;endArrow=classic;html=1;curved=0;rounded=0;endSize=8;startSize=8;exitX=1;exitY=0.5;exitDx=0;exitDy=0;exitPerimeter=0;entryX=0;entryY=0.5;entryDx=0;entryDy=0;" parent="1" source="48KPZ2gcjMkBe6VK5TsO-17" target="48KPZ2gcjMkBe6VK5TsO-8" edge="1">
          <mxGeometry width="50" height="50" relative="1" as="geometry">
            <mxPoint x="400" y="210" as="sourcePoint" />
            <mxPoint x="450" y="160" as="targetPoint" />
          </mxGeometry>
        </mxCell>
        <mxCell id="48KPZ2gcjMkBe6VK5TsO-22" value="" style="edgeStyle=elbowEdgeStyle;elbow=horizontal;endArrow=classic;html=1;curved=0;rounded=0;endSize=8;startSize=8;exitX=1;exitY=0.5;exitDx=0;exitDy=0;exitPerimeter=0;entryX=0;entryY=0.5;entryDx=0;entryDy=0;" parent="1" source="48KPZ2gcjMkBe6VK5TsO-11" target="48KPZ2gcjMkBe6VK5TsO-8" edge="1">
          <mxGeometry width="50" height="50" relative="1" as="geometry">
            <mxPoint x="400" y="210" as="sourcePoint" />
            <mxPoint x="450" y="160" as="targetPoint" />
          </mxGeometry>
        </mxCell>
        <mxCell id="48KPZ2gcjMkBe6VK5TsO-24" value="" style="edgeStyle=elbowEdgeStyle;elbow=horizontal;endArrow=classic;html=1;curved=0;rounded=0;endSize=8;startSize=8;exitX=1;exitY=0.5;exitDx=0;exitDy=0;exitPerimeter=0;entryX=0;entryY=0.5;entryDx=0;entryDy=0;" parent="1" source="48KPZ2gcjMkBe6VK5TsO-20" target="48KPZ2gcjMkBe6VK5TsO-8" edge="1">
          <mxGeometry width="50" height="50" relative="1" as="geometry">
            <mxPoint x="400" y="210" as="sourcePoint" />
            <mxPoint x="450" y="160" as="targetPoint" />
          </mxGeometry>
        </mxCell>
        <mxCell id="48KPZ2gcjMkBe6VK5TsO-25" value="" style="edgeStyle=elbowEdgeStyle;elbow=horizontal;endArrow=classic;html=1;curved=0;rounded=0;endSize=8;startSize=8;exitX=1;exitY=0.5;exitDx=0;exitDy=0;exitPerimeter=0;entryX=0;entryY=0.5;entryDx=0;entryDy=0;" parent="1" source="48KPZ2gcjMkBe6VK5TsO-19" target="48KPZ2gcjMkBe6VK5TsO-8" edge="1">
          <mxGeometry width="50" height="50" relative="1" as="geometry">
            <mxPoint x="400" y="210" as="sourcePoint" />
            <mxPoint x="450" y="160" as="targetPoint" />
          </mxGeometry>
        </mxCell>
        <mxCell id="48KPZ2gcjMkBe6VK5TsO-26" value="" style="edgeStyle=elbowEdgeStyle;elbow=horizontal;endArrow=classic;html=1;curved=0;rounded=0;endSize=8;startSize=8;exitX=1;exitY=0.5;exitDx=0;exitDy=0;exitPerimeter=0;entryX=0;entryY=0.5;entryDx=0;entryDy=0;" parent="1" source="48KPZ2gcjMkBe6VK5TsO-18" target="48KPZ2gcjMkBe6VK5TsO-8" edge="1">
          <mxGeometry width="50" height="50" relative="1" as="geometry">
            <mxPoint x="400" y="210" as="sourcePoint" />
            <mxPoint x="450" y="160" as="targetPoint" />
          </mxGeometry>
        </mxCell>
        <mxCell id="48KPZ2gcjMkBe6VK5TsO-28" value="" style="endArrow=classic;html=1;rounded=0;exitX=1;exitY=0.5;exitDx=0;exitDy=0;entryX=-0.058;entryY=0.529;entryDx=0;entryDy=0;entryPerimeter=0;" parent="1" source="48KPZ2gcjMkBe6VK5TsO-8" target="48KPZ2gcjMkBe6VK5TsO-9" edge="1">
          <mxGeometry width="50" height="50" relative="1" as="geometry">
            <mxPoint x="400" y="210" as="sourcePoint" />
            <mxPoint x="450" y="160" as="targetPoint" />
          </mxGeometry>
        </mxCell>
        <mxCell id="48KPZ2gcjMkBe6VK5TsO-29" value="" style="endArrow=classic;html=1;rounded=0;exitX=0.958;exitY=0.557;exitDx=0;exitDy=0;exitPerimeter=0;" parent="1" source="48KPZ2gcjMkBe6VK5TsO-9" target="48KPZ2gcjMkBe6VK5TsO-15" edge="1">
          <mxGeometry width="50" height="50" relative="1" as="geometry">
            <mxPoint x="400" y="210" as="sourcePoint" />
            <mxPoint x="450" y="160" as="targetPoint" />
          </mxGeometry>
        </mxCell>
        <mxCell id="48KPZ2gcjMkBe6VK5TsO-30" value="" style="endArrow=classic;html=1;rounded=0;exitX=1.016;exitY=0.557;exitDx=0;exitDy=0;exitPerimeter=0;" parent="1" source="48KPZ2gcjMkBe6VK5TsO-9" target="48KPZ2gcjMkBe6VK5TsO-10" edge="1">
          <mxGeometry width="50" height="50" relative="1" as="geometry">
            <mxPoint x="400" y="210" as="sourcePoint" />
            <mxPoint x="450" y="160" as="targetPoint" />
          </mxGeometry>
        </mxCell>
        <mxCell id="48KPZ2gcjMkBe6VK5TsO-31" value="SneakerPark MDM Architecture" style="text;strokeColor=none;fillColor=none;html=1;fontSize=24;fontStyle=1;verticalAlign=middle;align=center;" parent="1" vertex="1">
          <mxGeometry x="412.98" y="40" width="280" height="40" as="geometry" />
        </mxCell>
      </root>
    </mxGraphModel>
  </diagram>
</mxfile>
